<?xml version="1.0" standalone="no"?>
<!DOCTYPE svg PUBLIC "-//W3C//DTD SVG 20010904//EN"
 "http://www.w3.org/TR/2001/REC-SVG-20010904/DTD/svg10.dtd">
<svg version="1.0" xmlns="http://www.w3.org/2000/svg"
 width="300.000000pt" height="300.000000pt" viewBox="0 0 300.000000 300.000000"
 preserveAspectRatio="xMidYMid meet">
<metadata>
Created by potrace 1.14, written by Peter Selinger 2001-2017
</metadata>
<g transform="translate(0.000000,300.000000) scale(0.100000,-0.100000)"
fill="#000000" stroke="none">
<path d="M0 2850 c0 -138 1 -149 18 -144 16 5 16 5 0 -9 -10 -8 -18 -25 -18
-39 l0 -24 103 13 c56 7 164 12 240 13 166 0 571 22 1042 56 400 28 1045 49
1247 40 122 -6 235 -20 336 -42 l32 -6 0 146 0 146 -1500 0 -1500 0 0 -150z"/>
<path d="M2835 2470 c-82 -15 -164 -47 -242 -96 -122 -76 -166 -127 -316 -374
-56 -92 -135 -184 -196 -229 -69 -50 -180 -101 -221 -101 -44 0 -57 8 -65 41
-9 35 33 118 76 152 39 30 34 57 -9 57 -43 0 -77 -32 -113 -105 -26 -53 -31
-73 -27 -110 8 -64 30 -93 84 -107 45 -12 46 -13 40 -48 -3 -19 -9 -119 -12
-221 -6 -182 -6 -187 15 -208 16 -16 30 -21 54 -17 18 3 111 8 207 11 96 3
197 9 224 12 36 4 48 3 45 -6 -3 -7 -81 -32 -174 -56 -283 -72 -356 -95 -454
-142 -74 -35 -96 -42 -103 -31 -4 7 -6 22 -2 33 30 100 33 120 24 158 -18 84
-81 132 -170 131 -44 0 -69 -7 -128 -38 -40 -21 -85 -53 -101 -71 -39 -45 -48
-110 -23 -167 14 -33 16 -49 9 -66 -13 -28 -18 -28 -63 3 -80 54 -206 80 -459
95 -99 6 -183 14 -186 18 -4 4 -10 17 -14 30 -7 23 -5 23 37 17 64 -9 487 13
571 30 59 12 78 21 104 49 45 48 59 124 44 233 -11 77 -10 84 8 102 45 45 36
110 -31 214 -29 45 -34 48 -62 43 -17 -4 -34 -10 -39 -15 -4 -4 3 -39 17 -76
24 -66 24 -70 8 -98 l-17 -29 -105 5 c-124 7 -220 25 -365 71 -128 41 -171 69
-235 155 -41 54 -57 90 -95 206 -54 168 -84 219 -155 265 -43 27 -66 35 -115
38 -58 4 -63 2 -83 -23 -12 -15 -22 -37 -22 -48 0 -16 5 -18 25 -13 14 3 36 9
50 12 38 9 131 -40 160 -84 28 -44 42 -92 26 -92 -16 0 -49 -72 -66 -144 -28
-120 -22 -221 25 -406 23 -91 46 -173 51 -182 8 -14 6 -18 -8 -18 -28 0 -63
-29 -63 -51 0 -21 4 -22 68 -19 27 1 50 -4 60 -13 9 -8 26 -17 37 -19 26 -4
81 -87 100 -151 20 -66 37 -237 29 -291 -9 -56 -38 -107 -78 -134 -39 -27 -63
-28 -69 -4 -3 13 -7 10 -16 -13 -17 -40 3 -79 42 -83 36 -4 108 38 143 83 l26
35 63 -63 c66 -67 189 -155 338 -243 50 -30 87 -54 81 -54 -51 0 -504 53 -518
61 -14 8 -21 8 -27 -2 -6 -10 -12 -9 -29 6 -17 15 -23 16 -29 6 -7 -10 -34 -8
-142 13 -74 15 -164 34 -201 42 -63 16 -67 18 -71 48 -2 17 -4 0 -5 -39 -1
-40 2 -64 7 -57 6 10 19 9 62 -9 30 -12 68 -25 84 -28 22 -5 29 -13 28 -27 -1
-10 -5 -65 -9 -121 l-7 -103 247 0 248 0 -20 33 c-10 17 -34 58 -51 90 l-32
57 33 0 c18 0 148 -11 288 -25 587 -59 1135 -71 1364 -31 49 9 91 14 93 12 2
-2 -18 -20 -44 -40 -26 -20 -66 -49 -87 -66 l-39 -30 391 0 390 0 6 108 c7
126 24 240 37 248 5 3 9 398 9 961 0 526 -2 954 -4 952 -9 -9 -25 -427 -41
-1084 -2 -88 -6 -191 -9 -230 -3 -38 -8 -176 -12 -305 -5 -183 -10 -243 -22
-270 -9 -19 -16 -43 -17 -55 0 -16 -10 -22 -54 -29 -45 -8 -55 -7 -63 7 -11
21 -42 22 -58 2 -7 -9 -20 -15 -29 -13 -9 1 -29 -3 -46 -9 -16 -7 -66 -19
-110 -27 -44 -8 -145 -28 -225 -45 -85 -17 -195 -32 -265 -35 l-120 -6 45 21
c148 70 189 94 313 183 86 61 159 123 198 167 l62 69 56 1 c79 1 132 19 150
51 14 24 14 28 -3 47 -24 26 -52 27 -59 2 -7 -28 -105 -36 -130 -10 -12 13
-26 17 -45 13 -24 -5 -34 0 -61 31 -53 61 -67 119 -31 130 30 9 25 35 -6 35
-26 0 -26 2 -20 43 4 23 17 62 29 87 18 37 33 50 78 72 32 15 89 32 129 38 39
6 80 15 91 21 11 5 28 8 38 4 45 -14 70 21 41 58 -18 22 -18 27 -3 73 23 73
29 298 10 406 -31 176 -122 304 -265 370 -58 27 -81 42 -75 51 4 6 8 18 9 24
3 19 37 59 84 98 104 87 254 144 378 145 l62 0 0 35 c0 30 -3 35 -22 35 -13 0
-39 2 -58 4 -19 3 -57 1 -85 -4z m-339 -451 c48 -20 90 -46 117 -73 50 -50 99
-147 118 -231 17 -76 17 -296 1 -355 -28 -98 -27 -97 -105 -111 -40 -6 -90
-18 -111 -26 -26 -9 -122 -17 -270 -23 -127 -5 -254 -12 -282 -15 l-51 -6 -6
38 c-9 49 -9 153 0 276 l6 98 65 30 c36 16 65 29 66 29 0 0 1 -33 1 -72 0 -88
45 -235 83 -270 20 -20 34 -23 90 -22 90 2 145 18 180 54 54 53 45 134 -17
159 -35 15 -38 23 -15 42 39 32 54 100 34 153 -10 28 -79 76 -109 76 -11 0
-32 5 -46 10 l-26 10 44 50 c24 28 65 87 91 130 26 44 52 80 57 80 6 0 44 -14
85 -31z m-2176 -176 c40 -123 106 -218 198 -283 29 -21 66 -41 80 -45 l27 -5
0 -113 c0 -126 11 -159 67 -199 28 -19 45 -23 108 -23 89 1 129 18 214 96 45
41 56 57 54 78 -3 25 -5 26 -88 31 l-85 5 20 20 c18 18 31 20 152 17 l132 -3
7 -47 c20 -129 8 -197 -40 -217 -65 -27 -603 -63 -654 -44 -14 6 -41 27 -59
48 -18 21 -45 44 -61 50 -39 16 -54 52 -103 238 -34 133 -40 172 -40 252 1 91
24 211 42 211 4 0 17 -30 29 -67z m1214 -714 c-4 -7 0 -9 13 -5 26 8 52 -22
60 -69 5 -32 4 -37 -10 -32 -9 3 -18 1 -21 -6 -2 -7 -5 -4 -5 6 -1 9 6 17 14
17 8 0 15 5 15 11 0 5 -4 8 -9 5 -4 -3 -8 7 -7 22 1 25 -2 27 -41 28 -45 1
-58 -10 -23 -19 11 -3 20 -13 20 -22 0 -11 -5 -15 -15 -11 -11 4 -15 0 -13
-12 2 -13 -5 -18 -28 -20 -24 -2 -33 -9 -36 -25 -7 -36 0 -43 39 -39 22 3 33
1 30 -5 -4 -6 -18 -8 -32 -5 -15 2 -25 0 -25 -7 0 -18 67 -13 74 5 4 10 13 13
28 9 16 -4 19 -4 9 3 -7 5 -11 15 -7 21 5 7 -2 9 -22 5 -20 -4 -31 -1 -34 8
-4 10 6 12 44 10 45 -4 48 -6 42 -25 -17 -59 -87 -92 -168 -82 -60 7 -87 18
-115 49 -68 73 49 192 192 195 26 1 36 -3 31 -10z m785 -176 c-10 -54 -14 -62
-37 -67 -151 -32 -243 -47 -390 -61 -95 -9 -175 -15 -178 -13 -14 15 196 93
381 143 116 31 215 58 220 59 15 5 15 4 4 -61z m-835 36 c-6 -11 -24 -2 -24
11 0 5 7 7 15 4 8 -4 12 -10 9 -15z m-728 -99 c179 -12 310 -37 379 -74 l40
-21 -29 -3 c-72 -9 -282 18 -371 47 -49 16 -112 32 -140 36 -66 9 -78 13 -70
25 4 6 10 8 14 6 4 -3 83 -10 177 -16z m852 -85 c-2 -1 -72 -5 -155 -7 -158
-4 -167 -2 -139 35 12 15 20 16 57 8 61 -14 148 -13 184 3 28 12 31 11 43 -11
8 -14 12 -26 10 -28z m-938 5 c36 -10 95 -27 133 -38 37 -12 98 -24 135 -27
156 -13 152 -12 152 -52 0 -44 36 -105 59 -101 11 2 18 17 21 48 11 90 11 90
178 92 153 2 193 3 327 8 l80 3 5 -39 c5 -35 8 -39 37 -42 37 -4 53 18 50 64
l-2 28 120 13 c111 12 302 45 339 59 11 4 19 -2 26 -22 10 -24 8 -30 -17 -49
-37 -30 -115 -50 -142 -36 -30 17 -41 13 -41 -12 0 -20 -11 -26 -82 -50 -46
-14 -119 -31 -163 -38 -85 -12 -112 -27 -101 -55 10 -27 187 -15 289 21 43 15
81 24 84 21 3 -3 8 -20 12 -38 7 -36 32 -48 57 -27 12 10 14 23 10 54 l-7 41
83 26 83 25 27 -21 c15 -11 27 -24 27 -27 2 -15 -344 -276 -443 -334 -52 -30
-174 -57 -199 -43 -10 5 -25 25 -33 43 -29 69 -48 56 -57 -39 -10 -104 -2 -99
-136 -92 -301 16 -291 15 -306 50 -8 17 -16 43 -20 59 -8 41 -45 37 -69 -8
-11 -19 -25 -35 -33 -35 -44 0 -449 242 -492 294 -12 14 -8 16 43 16 55 0 56
-1 56 -28 0 -28 24 -72 40 -72 19 0 40 33 35 54 -18 60 -22 56 53 56 54 0 75
4 93 19 20 16 22 23 13 38 -10 16 -23 18 -102 15 l-91 -4 -15 36 c-21 50 -46
48 -46 -3 l0 -39 -52 -4 c-29 -2 -69 1 -88 7 -35 10 -35 11 -28 50 4 22 5 69
1 104 -5 60 -4 64 13 56 11 -4 48 -16 84 -25z m2215 -590 c3 -5 1 -10 -4 -10
-6 0 -11 5 -11 10 0 6 2 10 4 10 3 0 8 -4 11 -10z m-361 -65 c8 -32 -31 -105
-56 -105 -10 0 -26 8 -37 19 -18 18 -19 18 -38 -1 -17 -16 -93 -43 -93 -32 0
2 25 22 55 45 30 22 57 49 60 59 5 14 38 28 96 39 4 0 10 -10 13 -24z"/>
<path d="M1468 1093 c7 -3 16 -2 19 1 4 3 -2 6 -13 5 -11 0 -14 -3 -6 -6z"/>
<path d="M1405 980 c-15 -29 -11 -37 11 -22 14 9 25 52 13 52 -5 0 -15 -13
-24 -30z"/>
<path d="M1410 928 c0 -4 7 -8 15 -8 8 0 15 4 15 8 0 5 -7 9 -15 9 -8 0 -15
-4 -15 -9z"/>
<path d="M1405 571 c-11 -5 -48 -6 -81 -3 -43 3 -64 1 -69 -8 -11 -18 14 -34
79 -50 53 -12 58 -12 103 12 59 30 70 58 21 57 -18 0 -42 -4 -53 -8z"/>
<path d="M1602 1815 c-53 -67 -72 -176 -36 -206 20 -16 23 -10 38 58 7 32 19
79 27 105 17 61 2 83 -29 43z"/>
<path d="M2978 243 c7 -3 16 -2 19 1 4 3 -2 6 -13 5 -11 0 -14 -3 -6 -6z"/>
<path d="M57 223 c-4 -3 -7 -11 -7 -17 0 -6 5 -5 12 2 6 6 9 14 7 17 -3 3 -9
2 -12 -2z"/>
<path d="M35 170 c-3 -5 1 -10 9 -10 9 0 16 5 16 10 0 6 -4 10 -9 10 -6 0 -13
-4 -16 -10z"/>
<path d="M7 143 c-13 -12 -7 -25 6 -14 8 6 18 7 22 3 5 -4 5 -1 1 6 -8 13 -19
16 -29 5z"/>
<path d="M624 125 c-4 -8 6 -40 21 -70 25 -51 29 -55 62 -55 35 0 35 0 19 22
-9 13 -31 44 -48 71 -33 49 -45 57 -54 32z"/>
<path d="M0 95 c0 -8 2 -15 4 -15 2 0 6 7 10 15 3 8 1 15 -4 15 -6 0 -10 -7
-10 -15z"/>
<path d="M2980 100 c0 -5 5 -10 11 -10 5 0 7 5 4 10 -3 6 -8 10 -11 10 -2 0
-4 -4 -4 -10z"/>
<path d="M70 61 c0 -5 7 -11 15 -15 8 -3 15 -15 15 -26 0 -22 24 -27 36 -8 4
6 3 8 -4 4 -6 -3 -13 3 -17 14 -7 21 -45 48 -45 31z"/>
<path d="M120 50 c0 -5 4 -10 9 -10 6 0 13 5 16 10 3 6 -1 10 -9 10 -9 0 -16
-4 -16 -10z"/>
<path d="M66 21 c-4 -7 -5 -15 -2 -18 9 -9 19 4 14 18 -4 11 -6 11 -12 0z"/>
</g>
</svg>
